# xmcd CD database file
#
# Track frame offsets:
#	150
#	31160
#	61968
#	74680
#	101758
#	117612
#	141809
#	157718
#	185355
#	204185
#
# Disc length: 3107 seconds
#
# Revision: 0
# Processed by: cddbd v1.5.2PL0 Copyright (c) Steve Scherf et al.
# Submitted via: CDex 1.70beta2
#
DISCID=880c210a
DTITLE=Stéphane Spira and Giovanni Mirabassi - Spirabassi
DYEAR=2009
DGENRE=Jazz
TTITLE0=21 place des vosges
TTITLE1=Twilight song
TTITLE2=Spirabassi
TTITLE3=Alfonsina y el mar
TTITLE4=N.Y. Time
TTITLE5=Dear Lord
TTITLE6=Samba Phil
TTITLE7=Sabiha
TTITLE8=Mata Hari
TTITLE9=Pra Dizer Adeus
EXTD=YEAR: 2009
EXTT0=
EXTT1=
EXTT2=
EXTT3=
EXTT4=
EXTT5=
EXTT6=
EXTT7=
EXTT8=
EXTT9=
PLAYORDER=
